<?xml version="1.0" standalone="no"?>
<!DOCTYPE svg PUBLIC "-//W3C//DTD SVG 20010904//EN"
 "http://www.w3.org/TR/2001/REC-SVG-20010904/DTD/svg10.dtd">
<svg version="1.0" xmlns="http://www.w3.org/2000/svg"
 width="1575.000000pt" height="1076.000000pt" viewBox="0 0 1575.000000 1076.000000"
 preserveAspectRatio="xMidYMid meet">

<g transform="translate(0.000000,1076.000000) scale(0.100000,-0.100000)"
fill="#000000" stroke="none">
<path d="M7020 10233 c-25 -1 -106 -10 -180 -19 -122 -15 -184 -24 -445 -69
-80 -13 -280 -63 -365 -90 -25 -8 -94 -29 -155 -46 -60 -17 -121 -37 -135 -44
-14 -7 -68 -27 -120 -45 -52 -18 -115 -43 -140 -55 -25 -12 -76 -35 -115 -50
-118 -46 -442 -209 -625 -314 -96 -56 -206 -125 -350 -221 -255 -170 -321
-219 -558 -410 -230 -185 -223 -178 -442 -374 -25 -22 -144 -140 -265 -261
-213 -213 -366 -379 -491 -535 -224 -279 -264 -330 -264 -338 0 -5 -6 -15 -14
-21 -7 -6 -46 -60 -87 -119 -40 -59 -81 -118 -91 -132 -20 -26 -99 -149 -188
-290 -69 -110 -144 -239 -186 -319 -19 -35 -38 -69 -43 -75 -8 -10 -94 -173
-154 -291 -54 -106 -157 -325 -205 -435 -106 -245 -145 -337 -167 -400 -13
-36 -38 -101 -55 -145 -38 -97 -148 -407 -161 -455 -18 -64 -71 -234 -90 -290
-52 -147 -228 -851 -269 -1075 -10 -55 -32 -174 -49 -265 -52 -282 -133 -872
-155 -1135 -39 -442 -56 -767 -56 -1058 0 -175 2 -198 17 -204 20 -8 40 16
100 122 149 262 144 255 136 205 -10 -58 -9 -175 0 -222 4 -21 19 -51 33 -68
105 -124 317 152 419 545 30 118 32 158 5 185 -30 30 -76 25 -168 -20 -45 -21
-82 -37 -82 -33 0 3 15 30 33 60 17 31 41 72 53 92 118 204 208 357 240 409
21 34 59 96 84 137 132 219 398 625 511 780 33 44 67 91 76 104 10 14 29 38
43 55 14 16 39 48 55 72 55 78 189 238 268 320 42 45 77 86 77 91 0 14 -278
247 -299 251 -23 4 -29 -4 -91 -123 -29 -55 -56 -105 -61 -111 -5 -7 -28 -47
-51 -90 -22 -44 -55 -101 -72 -129 -18 -27 -45 -75 -60 -105 -16 -30 -34 -62
-41 -70 -7 -8 -29 -46 -49 -85 -20 -38 -69 -124 -108 -190 -39 -66 -89 -154
-111 -195 -22 -41 -45 -82 -52 -90 -7 -8 -32 -51 -55 -95 -24 -44 -50 -91 -60
-105 -9 -14 -19 -30 -21 -35 -4 -10 -98 -177 -247 -440 -102 -180 -143 -256
-279 -525 l-103 -205 0 120 c1 225 26 464 86 820 73 435 253 1153 394 1575 16
47 40 123 54 170 14 47 31 92 37 100 8 12 9 11 5 -5 -114 -438 -178 -794 -180
-1002 0 -72 3 -135 7 -139 33 -34 99 104 276 572 429 1136 725 1781 1114 2434
106 178 234 380 239 380 6 0 -125 -1671 -229 -2937 l-6 -72 -27 21 c-44 32
-106 34 -160 6 -92 -49 -173 -182 -401 -655 -169 -351 -226 -503 -188 -503 20
0 113 104 320 360 114 140 247 302 295 360 49 58 101 121 117 140 25 32 27 33
22 10 -2 -14 -12 -139 -21 -278 -14 -211 -15 -269 -5 -354 25 -205 100 -388
210 -508 73 -81 143 -124 245 -150 76 -19 109 -20 835 -20 825 0 833 1 955 58
222 104 408 404 461 742 21 137 367 4483 358 4507 -3 10 -15 28 -26 41 l-20
22 -576 0 c-607 -1 -594 0 -619 -46 -6 -12 -74 -803 -157 -1845 -79 -1003
-147 -1840 -151 -1859 -3 -19 -12 -45 -20 -58 -14 -21 -21 -23 -92 -20 l-77 3
-3 65 c-1 36 61 857 138 1825 78 968 142 1788 143 1823 2 58 0 66 -26 88 l-28
24 -267 1 c-147 1 -297 4 -335 8 l-67 6 118 130 c281 308 639 620 1147 998
901 672 1763 1093 2642 1291 208 47 383 76 723 121 416 55 543 85 574 137 14
23 -17 65 -70 96 -89 51 -314 106 -517 127 -38 4 -67 8 -65 10 20 19 515 30
983 21 59 -1 60 -1 60 27 0 25 -7 31 -60 53 -54 23 -234 82 -385 128 -140 42
-429 90 -700 116 -87 9 -493 11 -600 3z m490 -58 c313 -40 352 -48 268 -59
-23 -3 -135 -10 -248 -16 -867 -45 -1556 -204 -2224 -511 -894 -411 -1844
-1162 -2561 -2024 -483 -580 -936 -1328 -1305 -2155 -50 -113 -115 -256 -143
-319 -28 -63 -53 -109 -55 -103 -9 29 212 622 348 932 247 565 343 746 593
1120 418 626 946 1212 1522 1688 55 46 120 100 145 121 66 54 267 205 405 302
122 87 370 249 381 249 3 0 24 13 47 28 23 16 69 43 102 61 33 18 65 37 70 41
18 15 429 219 505 251 424 179 857 309 1210 365 381 60 638 68 940 29z m-3730
-3330 l-34 -35 -480 -2 -481 -3 -12 -140 c-6 -77 -12 -155 -12 -172 l-1 -33
475 0 476 0 -6 -62 c-3 -35 -19 -279 -35 -543 -16 -264 -32 -506 -35 -537 -6
-58 -6 -58 22 -59 l28 -2 -27 -4 c-16 -2 -28 -9 -28 -14 0 -5 12 -10 28 -10
l27 -2 -27 -4 c-22 -3 -28 -10 -28 -28 0 -13 -3 -30 -6 -39 -5 -12 0 -16 20
-16 35 0 34 -20 -1 -21 l-28 -2 28 -4 c15 -2 27 -9 27 -14 0 -5 -12 -10 -27
-10 l-28 -2 28 -4 c15 -2 27 -9 27 -14 0 -5 -12 -10 -27 -10 l-28 -2 28 -4
c25 -4 27 -7 22 -41 -3 -20 -30 -354 -60 -742 -30 -388 -61 -786 -69 -885 -17
-210 -11 -265 33 -309 24 -23 39 -29 92 -33 123 -10 195 34 218 133 6 27 61
670 121 1429 60 759 114 1432 120 1495 28 315 60 720 60 752 l0 28 547 0 547
0 -34 -35 -34 -35 -477 0 -477 0 -6 -47 c-3 -27 -8 -88 -11 -138 -3 -49 -8
-107 -11 -127 l-6 -38 477 0 477 0 -6 -72 c-3 -40 -19 -289 -36 -553 -16 -264
-32 -506 -35 -537 -6 -58 -6 -58 22 -59 l28 -2 -27 -4 c-16 -2 -28 -9 -28 -14
0 -5 12 -10 28 -10 l27 -2 -27 -4 c-16 -2 -28 -9 -28 -14 0 -5 12 -10 28 -10
l27 -2 -27 -4 c-16 -2 -28 -8 -28 -13 0 -5 12 -11 28 -13 25 -4 25 -4 -5 -6
-38 -1 -45 -21 -8 -21 34 0 32 -20 -2 -21 l-28 -2 28 -4 c15 -2 27 -9 27 -14
0 -5 -12 -10 -27 -10 l-28 -2 28 -4 c28 -4 28 -5 22 -61 -5 -45 -62 -773 -120
-1517 -60 -774 -87 -1085 -100 -1145 -60 -286 -221 -528 -413 -622 l-67 -33
-840 0 -840 0 -60 29 c-200 98 -344 430 -320 736 37 472 286 3588 289 3625 3
28 8 86 11 130 3 44 8 100 11 125 5 52 44 531 44 543 0 4 246 7 547 7 l547 0
-34 -35z m-1737 -3227 c7 -74 -2 -99 -54 -156 -107 -115 -686 -1041 -1099
-1757 -73 -126 -137 -234 -143 -240 -9 -10 68 145 97 195 22 37 107 191 169
305 30 55 78 143 107 195 29 52 64 114 76 138 13 23 46 79 72 125 27 45 115
197 194 337 176 308 316 552 350 606 14 22 40 69 58 104 18 36 55 105 82 153
47 83 51 87 68 72 11 -10 19 -37 23 -77z m-1547 -2349 c4 -7 7 -41 8 -77 1
-48 -3 -70 -15 -86 -18 -21 -18 -21 -33 16 -16 38 -20 96 -10 136 7 23 38 30
50 11z"/>
<path d="M9510 9899 c-162 -19 -359 -79 -505 -151 -149 -75 -359 -192 -453
-253 -262 -169 -665 -442 -872 -590 -58 -42 -130 -92 -160 -113 -30 -20 -71
-49 -90 -64 -19 -15 -66 -51 -105 -78 -86 -63 -241 -177 -340 -250 -41 -30
-84 -62 -97 -71 -43 -31 -293 -220 -343 -259 -27 -22 -77 -60 -110 -85 -145
-109 -369 -281 -630 -484 -45 -35 -261 -205 -435 -341 -36 -28 -89 -69 -117
-92 -54 -41 -62 -55 -41 -76 18 -18 31 -15 69 13 43 32 201 134 256 166 36 21
234 139 458 274 39 23 95 56 125 72 30 16 78 44 106 61 28 18 54 32 57 32 3 0
32 15 64 34 206 118 1026 544 998 517 -6 -5 -84 -66 -175 -137 -241 -186 -381
-305 -505 -429 -153 -152 -182 -215 -99 -215 86 0 274 79 864 363 908 436
1261 592 1470 650 60 16 107 20 235 21 141 1 169 -2 235 -22 85 -27 169 -69
220 -111 l34 -29 -2 -140 c-1 -134 -22 -280 -51 -354 -6 -15 -22 -80 -37 -145
-14 -64 -35 -147 -46 -183 -10 -36 -33 -110 -49 -165 -37 -123 -109 -342 -162
-495 -22 -63 -53 -151 -68 -195 -49 -144 -237 -639 -269 -710 -10 -22 -35 -80
-55 -130 -63 -155 -135 -325 -191 -451 -30 -67 -54 -124 -54 -127 0 -3 -22
-52 -50 -109 -27 -57 -50 -107 -50 -112 0 -5 -25 -60 -55 -121 -30 -62 -55
-115 -55 -119 0 -6 -210 -444 -251 -521 -83 -160 -169 -317 -230 -420 -10 -16
-37 -64 -60 -105 -23 -41 -63 -107 -88 -147 -25 -39 -71 -111 -102 -160 -57
-89 -86 -134 -149 -228 -99 -150 -158 -235 -195 -285 -23 -30 -68 -92 -101
-136 -32 -45 -102 -139 -154 -208 -52 -70 -104 -139 -115 -154 -11 -15 -65
-83 -120 -151 -55 -69 -118 -147 -139 -175 -21 -28 -55 -69 -75 -91 -20 -22
-54 -63 -76 -89 -22 -27 -61 -72 -88 -100 l-47 -51 5 50 c3 28 35 419 70 870
36 451 68 841 71 867 l6 48 442 0 c484 0 502 2 623 60 125 62 271 228 354 404
40 86 82 226 99 331 5 33 42 456 81 940 78 970 79 1012 34 1190 -69 274 -228
466 -425 513 -52 12 -2124 20 -2152 8 -46 -20 -42 20 -183 -1738 -74 -926
-168 -2101 -209 -2612 -45 -555 -71 -937 -66 -950 4 -11 18 -30 30 -41 22 -20
36 -20 590 -20 l568 0 -66 -75 c-326 -368 -779 -840 -1050 -1093 -47 -43 -72
-74 -70 -85 6 -33 43 -24 105 25 57 45 100 78 198 148 166 120 486 392 710
604 220 208 629 618 806 806 199 213 406 438 427 466 11 13 37 43 59 65 21 22
63 69 94 104 113 132 124 140 68 55 -99 -150 -375 -540 -597 -842 -354 -483
-430 -599 -404 -625 8 -8 24 -3 65 22 105 63 275 216 577 519 407 407 778 820
988 1099 150 198 543 778 765 1127 l89 140 -6 -65 c-3 -36 -8 -101 -11 -145
-3 -44 -37 -498 -75 -1010 -39 -511 -68 -940 -65 -952 3 -12 15 -32 27 -43 21
-19 34 -20 277 -20 186 1 260 4 272 13 29 22 38 54 45 162 l7 107 19 -74 c20
-82 70 -163 117 -191 25 -15 58 -17 255 -17 l227 0 24 25 c31 31 31 59 0 127
-31 67 -32 115 -5 458 11 140 20 282 20 315 0 76 -22 163 -58 235 l-28 55 29
40 c82 112 100 192 127 541 20 256 20 282 6 352 -19 92 -54 166 -101 215 -72
74 -52 71 -527 77 -234 3 -429 8 -433 12 -3 3 43 92 104 198 552 954 888 1835
1145 3000 99 452 121 632 113 954 -11 450 -83 729 -233 896 -18 20 -45 72 -64
125 -90 249 -233 399 -426 450 -63 16 -296 19 -414 4z m228 -38 c53 -21 112
-67 112 -86 0 -23 -30 -33 -120 -40 -200 -16 -385 -52 -520 -101 -249 -89
-732 -387 -1470 -905 -168 -118 -424 -291 -570 -385 -146 -94 -476 -308 -735
-474 -258 -167 -481 -310 -495 -319 -14 -9 -21 -11 -17 -4 7 11 88 75 397 312
1117 858 2119 1555 2595 1807 229 121 351 162 595 199 119 18 178 17 228 -4z
m-1896 -3013 c31 -14 77 -45 102 -68 l46 -42 -25 -20 c-26 -20 -48 -15 -75 17
-8 9 -37 29 -64 43 l-51 27 -1012 3 -1011 2 -6 -37 c-3 -21 -8 -74 -11 -118
-3 -44 -8 -106 -11 -137 l-6 -58 1175 0 1175 0 16 -67 c32 -143 31 -232 -9
-803 -2 -36 -7 -114 -10 -175 -3 -60 -8 -120 -11 -132 -4 -20 0 -23 28 -25
l33 -1 -32 -4 c-40 -5 -44 -22 -5 -24 l27 -2 -27 -4 c-22 -3 -28 -10 -28 -29
0 -19 5 -24 28 -25 l27 -2 -27 -4 c-35 -5 -37 -23 -3 -23 37 0 30 -20 -7 -21
-31 -2 -31 -2 -5 -6 15 -2 27 -9 27 -14 0 -5 -12 -10 -27 -10 l-28 -2 28 -4
c15 -2 27 -9 27 -14 0 -5 -12 -10 -27 -10 l-28 -2 28 -4 c15 -2 27 -5 27 -6
-5 -118 -64 -744 -74 -794 -75 -353 -298 -622 -542 -653 -38 -5 -270 -9 -516
-10 l-448 0 0 -22 c-1 -13 -3 -48 -6 -78 -5 -52 -144 -1798 -144 -1806 0 -2
-248 -4 -550 -4 l-550 0 5 38 c3 20 33 377 66 792 87 1098 288 3607 294 3665
5 55 7 72 35 420 11 132 20 250 20 263 l0 22 1053 -2 1052 -3 57 -27z m1483
-374 c-179 -535 -458 -1218 -776 -1901 -221 -475 -368 -755 -572 -1088 -342
-560 -983 -1358 -1643 -2047 -180 -188 -478 -478 -491 -478 -4 0 29 37 73 83
388 398 952 1069 1320 1571 248 338 518 745 746 1126 57 96 123 202 145 235
168 248 578 1100 911 1890 146 346 209 498 283 685 41 101 75 177 77 168 2 -8
-31 -118 -73 -244z m-1315 233 c0 -2 -11 -13 -24 -25 -21 -18 -26 -19 -37 -6
-9 12 -9 13 3 9 8 -3 21 1 28 10 11 13 30 21 30 12z m2127 -2544 c20 -9 38
-25 41 -35 2 -10 9 -18 16 -18 6 0 -2 -8 -19 -18 -29 -18 -31 -18 -55 -1 -23
16 -61 18 -410 21 -212 2 -391 7 -397 11 -10 6 -9 14 3 33 l16 24 385 0 c340
0 389 -2 420 -17z m59 -195 c9 -38 8 -276 -1 -430 l-7 -108 29 -1 28 -2 -27
-4 c-35 -5 -37 -23 -3 -23 27 0 28 -2 19 -49 -5 -25 -12 -31 -33 -32 l-26 -2
28 -4 c15 -2 25 -9 22 -14 -4 -5 -17 -6 -31 -3 -17 4 -24 2 -24 -8 0 -50 -95
-184 -142 -200 -8 -3 9 -26 48 -65 113 -110 125 -185 93 -583 -25 -297 -22
-438 9 -497 l22 -43 -203 0 -203 0 -26 28 c-76 81 -85 156 -59 491 25 320 26
315 -67 319 -46 2 -62 0 -62 -10 0 -7 -14 -188 -30 -402 -17 -214 -30 -397
-30 -407 0 -18 -12 -19 -231 -19 l-231 0 6 58 c4 31 31 383 61 782 31 399 62
802 70 895 8 94 15 189 17 213 1 27 8 47 17 52 10 6 11 10 4 10 -21 0 -14 17
10 24 18 5 20 8 7 16 -12 8 -12 10 5 10 19 0 20 -8 23 -97 2 -54 5 -99 7 -101
4 -4 9 0 64 48 57 49 69 58 90 65 12 3 21 11 21 16 0 5 5 9 10 9 6 0 20 9 32
20 12 11 28 20 35 20 7 0 13 5 13 10 0 6 13 10 29 10 17 0 33 5 36 10 3 6 26
10 51 10 24 0 44 5 44 10 0 6 86 10 239 10 l239 0 8 -32z"/>
<path d="M6640 5567 c-29 -15 -33 -36 -44 -239 l-8 -128 29 -1 c20 -1 22 -3 8
-6 -45 -10 -50 -17 -15 -23 l35 -7 -32 -2 c-40 -1 -44 -18 -5 -24 l27 -4 -27
-2 c-35 -1 -37 -21 -3 -21 34 0 32 -18 -2 -23 l-28 -4 28 -2 c15 0 27 -5 27
-10 0 -5 -12 -12 -27 -14 l-28 -4 26 -2 c24 -1 26 -5 25 -43 l-1 -43 135 0
c160 0 179 8 215 88 18 39 26 84 35 184 11 136 5 193 -23 237 -14 21 -14 25 1
40 14 14 14 18 2 30 -8 7 -30 18 -49 25 -47 15 -269 14 -301 -2z m283 -295
c-1 -129 -4 -158 -20 -185 -19 -32 -20 -32 -106 -35 l-87 -3 5 53 c10 101 25
283 25 306 0 22 2 23 93 20 l92 -3 -2 -153z"/>
<path d="M9628 3639 c-33 -12 -38 -27 -44 -111 l-5 -67 28 -4 28 -4 -27 -2
c-16 0 -28 -5 -28 -10 0 -5 12 -12 28 -14 l27 -4 -27 -2 c-35 -1 -37 -21 -3
-21 21 0 25 -5 25 -30 0 -30 1 -30 55 -30 41 0 60 5 74 19 24 24 36 95 27 172
-4 47 -3 61 8 65 24 9 6 33 -32 44 -45 12 -98 12 -134 -1z"/>
<path d="M10497 4240 c-13 -11 -27 -30 -31 -43 -3 -12 -39 -468 -81 -1012 -62
-825 -73 -1001 -65 -1053 23 -140 86 -244 174 -287 l53 -26 369 3 c356 3 370
4 409 25 104 56 187 194 214 355 l9 53 1 -60 c1 -75 29 -178 64 -237 34 -59
97 -114 144 -127 24 -7 202 -11 491 -11 l453 0 24 25 c16 15 25 37 26 57 1 33
1 33 9 -6 4 -22 18 -48 30 -58 22 -18 48 -19 494 -16 533 3 499 -2 585 87 107
110 133 202 161 577 20 256 20 281 6 352 -9 43 -29 104 -46 137 l-29 60 28 40
c79 112 97 181 122 480 11 131 21 240 22 241 1 1 62 -173 136 -387 l134 -389
-42 -565 c-46 -630 -46 -621 19 -644 44 -15 436 -15 479 0 18 6 38 24 47 40
11 22 25 177 56 591 l41 561 279 563 c182 369 278 574 278 594 0 19 -9 40 -25
55 l-24 25 -260 0 c-171 0 -269 -4 -285 -11 -24 -11 -50 -62 -152 -291 -21
-48 -39 -86 -41 -84 -1 1 -23 72 -48 157 -58 196 -61 204 -91 218 -17 7 -116
11 -295 11 l-270 0 -25 -25 -25 -25 -32 24 c-61 45 -77 46 -552 46 -439 0
-452 -1 -473 -20 -21 -20 -27 -34 -35 -90 -3 -14 -5 -7 -6 18 -1 31 -8 50 -26
68 l-25 25 -467 -3 c-531 -3 -504 1 -592 -89 -55 -56 -96 -132 -122 -227 -21
-81 -22 -73 -8 97 12 145 9 171 -23 201 -21 19 -34 20 -274 20 -250 0 -253 0
-280 -23 l-27 -23 -23 23 c-23 23 -25 23 -277 23 -238 0 -256 -1 -280 -20z
m463 -95 l-34 -35 -158 0 -158 0 0 -32 c0 -18 -3 -43 -6 -55 l-6 -23 157 0
158 0 -7 -187 c-4 -104 -9 -232 -13 -285 l-5 -98 28 -1 29 -2 -27 -4 c-16 -2
-28 -9 -28 -14 0 -5 12 -10 28 -10 l27 -1 -30 -8 -30 -8 27 -1 c26 -1 27 -3
23 -43 -6 -50 -41 -533 -51 -693 -8 -128 0 -145 64 -145 42 0 55 7 70 36 9 17
58 599 108 1284 3 41 7 89 9 105 2 17 7 81 11 143 l7 112 225 0 226 0 -34 -35
-34 -35 -158 0 -158 0 0 -32 c0 -18 -3 -43 -6 -55 l-6 -23 157 0 158 0 -7
-157 c-3 -87 -9 -211 -12 -275 l-7 -118 29 -1 29 -2 -27 -4 c-35 -5 -37 -23
-3 -23 34 0 32 -20 -2 -21 l-28 -2 27 -4 c26 -4 27 -7 22 -46 -2 -23 -13 -166
-24 -317 -11 -151 -22 -306 -25 -345 -30 -411 -37 -486 -55 -547 -27 -91 -93
-186 -149 -215 -44 -23 -49 -23 -388 -23 -373 0 -371 0 -425 57 -51 53 -72
118 -76 233 -3 86 98 1514 123 1730 2 25 8 93 11 153 l7 107 225 0 226 0 -34
-35z m1845 0 l-40 -34 -398 -3 -398 -3 -47 -50 -47 -50 440 -3 440 -2 -6 -143
c-4 -78 -7 -157 -8 -174 l-1 -33 -252 0 c-221 0 -257 -2 -288 -18 -44 -22 -67
-63 -72 -129 l-5 -53 31 -2 31 -1 -32 -4 c-40 -5 -44 -22 -5 -24 l27 -2 -27
-4 c-35 -5 -37 -23 -3 -23 29 0 29 3 15 -155 -5 -60 -18 -240 -30 -399 -25
-344 -27 -336 69 -336 l58 0 6 68 c4 37 9 104 13 150 l7 82 -40 0 -39 0 23
283 c12 155 22 290 22 300 1 16 21 17 266 17 205 0 265 -3 265 -12 0 -7 -11
-166 -25 -353 -14 -187 -37 -493 -50 -680 -14 -187 -28 -366 -31 -397 l-6 -58
-434 0 c-466 0 -475 1 -521 51 -42 46 -75 135 -80 217 -5 79 107 1603 127
1716 12 75 58 172 104 224 67 74 49 72 541 72 l440 0 -40 -35z m1103 21 c15
-8 36 -23 46 -35 18 -20 18 -21 -5 -40 -26 -22 -39 -26 -39 -13 0 28 -62 32
-439 32 l-388 0 -7 -37 c-13 -81 -60 -74 439 -71 l446 3 7 -25 c4 -14 6 -139
4 -277 l-2 -253 27 -1 c27 -2 27 -2 3 -6 -40 -7 -48 -23 -12 -23 42 0 42 -20
0 -21 -31 -2 -31 -2 -5 -6 21 -3 27 -10 27 -29 0 -19 -5 -24 -25 -24 -14 0
-25 -4 -25 -10 0 -5 9 -10 20 -10 11 0 20 -6 20 -14 0 -8 -8 -12 -22 -9 -20 4
-27 -4 -51 -59 -27 -63 -55 -99 -112 -147 -23 -19 -26 -26 -14 -30 34 -13 108
-95 128 -141 36 -84 39 -151 20 -428 -20 -275 -34 -356 -76 -440 -28 -56 -97
-126 -139 -142 -15 -6 -203 -10 -460 -10 l-434 0 0 23 c0 22 134 1794 145
1912 14 160 25 293 25 318 l0 27 435 0 c354 0 441 -3 463 -14z m670 -38 l-26
-33 -181 -3 c-111 -1 -181 -6 -181 -12 0 -6 4 -18 10 -28 5 -9 14 -30 20 -45
l10 -28 174 3 173 3 53 -152 c51 -148 53 -153 80 -153 24 0 30 -5 35 -31 4
-17 10 -27 15 -22 4 4 60 126 125 271 l118 262 233 0 c129 0 234 -2 234 -4 0
-2 -23 -18 -50 -35 l-50 -31 -159 0 -159 0 -17 -42 c-9 -24 -19 -49 -22 -55
-4 -10 29 -13 145 -13 l151 0 -43 -97 c-24 -54 -71 -156 -104 -228 -204 -439
-240 -520 -236 -527 3 -4 10 -8 15 -8 6 0 7 5 4 10 -3 6 -1 10 4 10 16 0 13
-27 -8 -68 -18 -36 -27 -109 -46 -402 -3 -47 -17 -237 -30 -424 -14 -186 -25
-342 -25 -347 0 -5 -97 -9 -221 -9 l-221 0 6 38 c3 20 22 273 42 560 36 497
37 527 22 580 -9 32 -91 278 -183 547 -92 270 -168 495 -169 502 -1 7 -5 16
-9 19 -20 21 14 24 244 24 l252 0 -25 -32z m-1661 -115 c-3 -10 -5 -4 -5 12 0
17 2 24 5 18 2 -7 2 -21 0 -30z m-10 -135 c-3 -7 -5 -2 -5 12 0 14 2 19 5 13
2 -7 2 -19 0 -25z m-1240 -80 c-3 -7 -5 -2 -5 12 0 14 2 19 5 13 2 -7 2 -19 0
-25z m1230 -50 c-3 -7 -5 -2 -5 12 0 14 2 19 5 13 2 -7 2 -19 0 -25z m-1240
-80 c-3 -8 -6 -5 -6 6 -1 11 2 17 5 13 3 -3 4 -12 1 -19z m1230 -50 c-3 -7 -5
-2 -5 12 0 14 2 19 5 13 2 -7 2 -19 0 -25z m-1240 -80 c-3 -8 -6 -5 -6 6 -1
11 2 17 5 13 3 -3 4 -12 1 -19z m1228 -64 c-7 -73 -8 -75 -20 -48 -21 51 -42
54 -330 54 -170 0 -265 4 -265 10 0 6 98 10 275 10 285 0 319 4 331 42 12 38
16 8 9 -68z m-1238 -76 c-3 -7 -5 -2 -5 12 0 14 2 19 5 13 2 -7 2 -19 0 -25z
m1230 -40 c-3 -8 -6 -5 -6 6 -1 11 2 17 5 13 3 -3 4 -12 1 -19z m-1240 -90
c-3 -7 -5 -2 -5 12 0 14 2 19 5 13 2 -7 2 -19 0 -25z m1230 -50 c-3 -7 -5 -2
-5 12 0 14 2 19 5 13 2 -7 2 -19 0 -25z m-1240 -80 c-3 -7 -5 -2 -5 12 0 14 2
19 5 13 2 -7 2 -19 0 -25z m1230 -50 c-3 -8 -6 -5 -6 6 -1 11 2 17 5 13 3 -3
4 -12 1 -19z m-1240 -80 c-3 -7 -5 -2 -5 12 0 14 2 19 5 13 2 -7 2 -19 0 -25z
m1230 -50 c-3 -8 -6 -5 -6 6 -1 11 2 17 5 13 3 -3 4 -12 1 -19z m-1240 -80
c-3 -8 -6 -5 -6 6 -1 11 2 17 5 13 3 -3 4 -12 1 -19z m1230 -50 c-3 -8 -6 -5
-6 6 -1 11 2 17 5 13 3 -3 4 -12 1 -19z m-1240 -80 c-3 -8 -6 -5 -6 6 -1 11 2
17 5 13 3 -3 4 -12 1 -19z m1230 -50 c-3 -8 -6 -5 -6 6 -1 11 2 17 5 13 3 -3
4 -12 1 -19z m-1240 -80 c-3 -8 -6 -5 -6 6 -1 11 2 17 5 13 3 -3 4 -12 1 -19z
m1230 -50 c-3 -8 -6 -5 -6 6 -1 11 2 17 5 13 3 -3 4 -12 1 -19z m-1240 -80
c-3 -8 -6 -5 -6 6 -1 11 2 17 5 13 3 -3 4 -12 1 -19z m1230 -50 c-3 -8 -6 -5
-6 6 -1 11 2 17 5 13 3 -3 4 -12 1 -19z m-1240 -80 c-3 -8 -6 -5 -6 6 -1 11 2
17 5 13 3 -3 4 -12 1 -19z m1230 -50 c-3 -8 -6 -5 -6 6 -1 11 2 17 5 13 3 -3
4 -12 1 -19z m-10 -140 c-3 -7 -5 -2 -5 12 0 14 2 19 5 13 2 -7 2 -19 0 -25z
m-10 -130 c-3 -8 -6 -5 -6 6 -1 11 2 17 5 13 3 -3 4 -12 1 -19z"/>
<path d="M13413 3644 c-39 -9 -53 -42 -53 -121 0 -71 0 -72 28 -76 l27 -4 -27
-2 c-35 -1 -37 -21 -3 -21 37 0 30 -20 -7 -21 -31 -2 -31 -2 -5 -6 21 -3 27
-10 27 -29 0 -23 3 -24 59 -24 51 0 62 3 79 25 23 29 38 148 23 187 -7 19 -6
29 7 42 15 15 15 17 0 32 -16 16 -112 27 -155 18z"/>
<path d="M13356 2728 c-3 -7 -7 -61 -10 -120 l-7 -108 59 0 c81 0 94 16 100
119 6 108 -2 121 -79 121 -39 0 -61 -4 -63 -12z"/>
</g>
</svg>
