<svg width="48" height="48" viewBox="0 0 64 64" fill="none" xmlns="http://www.w3.org/2000/svg">
    <path d="M9 53V57V61H49V57V53H9Z" fill="#3a3a3a" />
    <path d="M9 57V61H3V53H9V57Z" fill="#3a3a3a" />
    <path d="M9 3H3V53H9V3Z" fill="#3a3a3a" />
    <path d="M61 19H55V50H61V19Z" fill="#3a3a3a" />
    <path d="M61 10H55V16H61V10Z" fill="#3a3a3a" />
    <path
        d="M61 9H55C54.7348 9 54.4804 9.10536 54.2929 9.29289C54.1054 9.48043 54 9.73478 54 10V51C53.9997 51.1355 54.0273 51.2696 54.081 51.394L57.081 58.394C57.1581 58.5738 57.2863 58.727 57.4497 58.8347C57.613 58.9424 57.8044 58.9997 58 58.9997C58.1956 58.9997 58.387 58.9424 58.5503 58.8347C58.7137 58.727 58.8419 58.5738 58.919 58.394L61.919 51.394C61.9727 51.2696 62.0003 51.1355 62 51V10C62 9.73478 61.8946 9.48043 61.7071 9.29289C61.5196 9.10536 61.2652 9 61 9ZM60 11V15H56V11H60ZM56 49V20H60V49H56ZM56 18V17H60V18H56ZM58 55.461L56.088 51H59.912L58 55.461Z"
        fill="#3a3a3a" />
    <path
        d="M49 2H3C2.73478 2 2.48043 2.10536 2.29289 2.29289C2.10536 2.48043 2 2.73478 2 3V61C2 61.2652 2.10536 61.5196 2.29289 61.7071C2.48043 61.8946 2.73478 62 3 62H49C49.2652 62 49.5196 61.8946 49.7071 61.7071C49.8946 61.5196 50 61.2652 50 61V3C50 2.73478 49.8946 2.48043 49.7071 2.29289C49.5196 2.10536 49.2652 2 49 2V2ZM48 52H10V4H48V52ZM4 4H8V52H4V4ZM4 54H8V60H4V54ZM10 60V54H48V56H12V58H48V60H10Z"
        fill="#3a3a3a" />
    <path d="M44 9H14V11H44V9Z" fill="#71888E" />
    <path d="M44 15H14V17H44V15Z" fill="#71888E" />
    <path d="M44 21H14V23H44V21Z" fill="#71888E" />
    <path d="M44 27H14V29H44V27Z" fill="#71888E" />
    <path d="M44 33H14V35H44V33Z" fill="#71888E" />
    <path d="M44 39H14V41H44V39Z" fill="#71888E" />
    <path d="M44 45H14V47H44V45Z" fill="#71888E" />
</svg>