<svg xmlns="http://www.w3.org/2000/svg" viewBox="0 0 32 32" width="48" height="48">
    <path fill="#3a3a3a"
        d="M28.9,25.2c1.8-1,3.1-3,3.1-5.2c0-3.3-2.7-6-6-6s-6,2.7-6,6c0,2.3,1.3,4.2,3.1,5.2l-1.5,1.2c-0.7,0.5-0.9,1.4-0.6,2.2
	s1,1.3,1.9,1.3h6.3c0.9,0,1.6-0.5,1.9-1.3s0-1.7-0.6-2.2L28.9,25.2z M26,18c1.1,0,2,0.9,2,2s-0.9,2-2,2s-2-0.9-2-2S24.9,18,26,18z" />
    <path fill="#3a3a3a" d="M18,20c0-0.7,0.1-1.4,0.3-2H5V7h17v6.1c0.6-0.4,1.3-0.6,2-0.8V6c0-0.6-0.4-1-1-1H4C3.4,5,3,5.4,3,6v12
	c-0.4,0-0.8,0.2-0.9,0.6l-2,5c-0.1,0.3-0.1,0.7,0.1,0.9S0.7,25,1,25h18.8C18.6,23.6,18,21.8,18,20z" />
</svg>